<?xml version="1.0" standalone="no"?>
<!DOCTYPE svg PUBLIC "-//W3C//DTD SVG 20010904//EN"
 "http://www.w3.org/TR/2001/REC-SVG-20010904/DTD/svg10.dtd">
<svg version="1.0" xmlns="http://www.w3.org/2000/svg"
 width="195.000000pt" height="195.000000pt" viewBox="0 0 195.000000 195.000000"
 preserveAspectRatio="xMidYMid meet">
<metadata>
Created by potrace 1.11, written by Peter Selinger 2001-2013
</metadata>
<g transform="translate(0.000000,195.000000) scale(0.100000,-0.100000)"
fill="#000000" stroke="none">
<path d="M548 1475 c-1 -1 -27 -5 -56 -9 -66 -8 -171 -55 -229 -102 -189 -155
-199 -557 -17 -740 104 -105 209 -135 482 -138 105 -2 193 0 194 3 1 3 2 228
3 499 l2 493 -188 -1 c-103 -1 -189 -3 -191 -5z m263 -125 c3 -54 4 -727 0
-738 -5 -17 -253 -15 -322 3 -110 29 -177 83 -223 178 -76 157 -37 403 79 491
79 60 165 81 340 81 105 1 125 -2 126 -15z"/>
<path d="M1028 1473 c-4 -7 -3 -968 1 -983 1 -8 356 -4 401 4 82 13 98 18 160
48 35 17 85 52 110 77 177 179 183 539 11 724 -50 55 -150 103 -257 126 -54
11 -421 15 -426 4z m452 -126 c160 -47 243 -170 243 -362 1 -197 -92 -328
-260 -369 -50 -12 -102 -16 -197 -14 l-129 3 1 375 c0 206 1 377 1 380 1 3 65
5 144 5 99 -1 159 -7 197 -18z"/>
</g>
</svg>
